<mxfile host="Electron" agent="Mozilla/5.0 (Windows NT 10.0; Win64; x64) AppleWebKit/537.36 (KHTML, like Gecko) draw.io/27.0.9 Chrome/134.0.6998.205 Electron/35.4.0 Safari/537.36" version="27.0.9">
  <diagram name="User Registration Flowchart" id="uDAqZBJ1lP4ngjwNmMFg">
    <mxGraphModel dx="770" dy="507" grid="0" gridSize="10" guides="1" tooltips="1" connect="1" arrows="1" fold="1" page="1" pageScale="1" pageWidth="850" pageHeight="1100" background="#FFCCFF" math="0" shadow="0">
      <root>
        <mxCell id="0" />
        <mxCell id="1" parent="0" />
        <mxCell id="rWImIPGxrAMhx3rrAa-u-1" value="Start" style="shape=terminator;whiteSpace=wrap;html=1;" parent="1" vertex="1">
          <mxGeometry x="100" y="40" width="180" height="60" as="geometry" />
        </mxCell>
        <mxCell id="rWImIPGxrAMhx3rrAa-u-2" value="Show registration form (email, password, role)" style="shape=rectangle;whiteSpace=wrap;html=1;" parent="1" vertex="1">
          <mxGeometry x="100" y="100" width="180" height="60" as="geometry" />
        </mxCell>
        <mxCell id="rWImIPGxrAMhx3rrAa-u-3" value="Validate input" style="shape=rectangle;whiteSpace=wrap;html=1;" parent="1" vertex="1">
          <mxGeometry x="100" y="160" width="180" height="60" as="geometry" />
        </mxCell>
        <mxCell id="rWImIPGxrAMhx3rrAa-u-4" value="Email already registered?" style="shape=rhombus;whiteSpace=wrap;html=1;" parent="1" vertex="1">
          <mxGeometry x="100" y="220" width="180" height="60" as="geometry" />
        </mxCell>
        <mxCell id="rWImIPGxrAMhx3rrAa-u-5" value="Show error: email exists" style="shape=rectangle;whiteSpace=wrap;html=1;" parent="1" vertex="1">
          <mxGeometry x="337" y="220" width="180" height="60" as="geometry" />
        </mxCell>
        <mxCell id="rWImIPGxrAMhx3rrAa-u-6" value="Hash password" style="shape=rectangle;whiteSpace=wrap;html=1;" parent="1" vertex="1">
          <mxGeometry x="100" y="321" width="180" height="60" as="geometry" />
        </mxCell>
        <mxCell id="rWImIPGxrAMhx3rrAa-u-7" value="Save user to DB" style="shape=rectangle;whiteSpace=wrap;html=1;" parent="1" vertex="1">
          <mxGeometry x="100" y="385" width="180" height="60" as="geometry" />
        </mxCell>
        <mxCell id="rWImIPGxrAMhx3rrAa-u-8" value="Generate JWT token" style="shape=rectangle;whiteSpace=wrap;html=1;" parent="1" vertex="1">
          <mxGeometry x="100" y="445" width="180" height="60" as="geometry" />
        </mxCell>
        <mxCell id="rWImIPGxrAMhx3rrAa-u-9" value="Return success + token" style="shape=rectangle;whiteSpace=wrap;html=1;" parent="1" vertex="1">
          <mxGeometry x="100" y="505" width="180" height="60" as="geometry" />
        </mxCell>
        <mxCell id="rWImIPGxrAMhx3rrAa-u-10" value="End" style="shape=terminator;whiteSpace=wrap;html=1;" parent="1" vertex="1">
          <mxGeometry x="100" y="565" width="180" height="60" as="geometry" />
        </mxCell>
        <mxCell id="rWImIPGxrAMhx3rrAa-u-11" style="endArrow=block;" parent="1" source="rWImIPGxrAMhx3rrAa-u-1" target="rWImIPGxrAMhx3rrAa-u-2" edge="1">
          <mxGeometry relative="1" as="geometry" />
        </mxCell>
        <mxCell id="rWImIPGxrAMhx3rrAa-u-12" style="endArrow=block;" parent="1" source="rWImIPGxrAMhx3rrAa-u-2" target="rWImIPGxrAMhx3rrAa-u-3" edge="1">
          <mxGeometry relative="1" as="geometry" />
        </mxCell>
        <mxCell id="rWImIPGxrAMhx3rrAa-u-13" style="endArrow=block;" parent="1" source="rWImIPGxrAMhx3rrAa-u-3" target="rWImIPGxrAMhx3rrAa-u-4" edge="1">
          <mxGeometry relative="1" as="geometry" />
        </mxCell>
        <mxCell id="rWImIPGxrAMhx3rrAa-u-14" value="Yes" style="endArrow=block;" parent="1" source="rWImIPGxrAMhx3rrAa-u-4" target="rWImIPGxrAMhx3rrAa-u-5" edge="1">
          <mxGeometry relative="1" as="geometry" />
        </mxCell>
        <mxCell id="rWImIPGxrAMhx3rrAa-u-15" style="endArrow=block;" parent="1" source="rWImIPGxrAMhx3rrAa-u-4" target="rWImIPGxrAMhx3rrAa-u-6" edge="1">
          <mxGeometry relative="1" as="geometry" />
        </mxCell>
        <mxCell id="tXQ1yB8p7k0iRcJCDNik-1" value="No" style="edgeLabel;html=1;align=center;verticalAlign=middle;resizable=0;points=[];" vertex="1" connectable="0" parent="rWImIPGxrAMhx3rrAa-u-15">
          <mxGeometry y="2" relative="1" as="geometry">
            <mxPoint as="offset" />
          </mxGeometry>
        </mxCell>
        <mxCell id="rWImIPGxrAMhx3rrAa-u-16" style="endArrow=block;edgeStyle=elbowEdgeStyle;" parent="1" source="rWImIPGxrAMhx3rrAa-u-5" target="rWImIPGxrAMhx3rrAa-u-10" edge="1">
          <mxGeometry relative="1" as="geometry">
            <Array as="points">
              <mxPoint x="421" y="564" />
            </Array>
          </mxGeometry>
        </mxCell>
        <mxCell id="rWImIPGxrAMhx3rrAa-u-17" style="endArrow=block;" parent="1" target="rWImIPGxrAMhx3rrAa-u-7" edge="1">
          <mxGeometry relative="1" as="geometry">
            <mxPoint x="190" y="385" as="sourcePoint" />
          </mxGeometry>
        </mxCell>
        <mxCell id="rWImIPGxrAMhx3rrAa-u-18" style="endArrow=block;" parent="1" source="rWImIPGxrAMhx3rrAa-u-7" target="rWImIPGxrAMhx3rrAa-u-8" edge="1">
          <mxGeometry relative="1" as="geometry" />
        </mxCell>
        <mxCell id="rWImIPGxrAMhx3rrAa-u-19" style="endArrow=block;" parent="1" source="rWImIPGxrAMhx3rrAa-u-8" target="rWImIPGxrAMhx3rrAa-u-9" edge="1">
          <mxGeometry relative="1" as="geometry" />
        </mxCell>
        <mxCell id="rWImIPGxrAMhx3rrAa-u-20" style="endArrow=block;" parent="1" source="rWImIPGxrAMhx3rrAa-u-9" target="rWImIPGxrAMhx3rrAa-u-10" edge="1">
          <mxGeometry relative="1" as="geometry" />
        </mxCell>
      </root>
    </mxGraphModel>
  </diagram>
</mxfile>
